<mxfile host="app.diagrams.net" modified="2021-11-06T12:41:24.251Z" agent="5.0 (Macintosh; Intel Mac OS X 10_15_7) AppleWebKit/537.36 (KHTML, like Gecko) Chrome/95.0.4638.69 Safari/537.36" etag="QbhANtgoYNvXWvx3u5Uv" version="15.7.0" type="github">
  <diagram id="T8T5pg_n-UV65c8-GLJE" name="Page-1">
    <mxGraphModel dx="1298" dy="724" grid="1" gridSize="10" guides="1" tooltips="1" connect="1" arrows="1" fold="1" page="1" pageScale="1" pageWidth="827" pageHeight="1169" math="0" shadow="0">
      <root>
        <mxCell id="0" />
        <mxCell id="1" parent="0" />
        <mxCell id="VggR9B4aqKqfdDtKF7a5-6" style="edgeStyle=orthogonalEdgeStyle;rounded=0;orthogonalLoop=1;jettySize=auto;html=1;exitX=0.5;exitY=1;exitDx=0;exitDy=0;exitPerimeter=0;entryX=0;entryY=0.5;entryDx=0;entryDy=0;" edge="1" parent="1" source="VggR9B4aqKqfdDtKF7a5-1" target="VggR9B4aqKqfdDtKF7a5-2">
          <mxGeometry relative="1" as="geometry" />
        </mxCell>
        <mxCell id="VggR9B4aqKqfdDtKF7a5-9" style="edgeStyle=orthogonalEdgeStyle;rounded=0;orthogonalLoop=1;jettySize=auto;html=1;exitX=0;exitY=0;exitDx=0;exitDy=52.5;exitPerimeter=0;entryX=0.5;entryY=0;entryDx=0;entryDy=0;" edge="1" parent="1" source="VggR9B4aqKqfdDtKF7a5-1" target="VggR9B4aqKqfdDtKF7a5-8">
          <mxGeometry relative="1" as="geometry" />
        </mxCell>
        <mxCell id="VggR9B4aqKqfdDtKF7a5-1" value="DB" style="shape=cylinder3;whiteSpace=wrap;html=1;boundedLbl=1;backgroundOutline=1;size=15;" vertex="1" parent="1">
          <mxGeometry x="330" y="100" width="60" height="80" as="geometry" />
        </mxCell>
        <mxCell id="VggR9B4aqKqfdDtKF7a5-14" style="edgeStyle=orthogonalEdgeStyle;rounded=0;orthogonalLoop=1;jettySize=auto;html=1;exitX=0;exitY=0.25;exitDx=0;exitDy=0;entryX=0.7;entryY=0.975;entryDx=0;entryDy=0;entryPerimeter=0;" edge="1" parent="1" source="VggR9B4aqKqfdDtKF7a5-2" target="VggR9B4aqKqfdDtKF7a5-1">
          <mxGeometry relative="1" as="geometry" />
        </mxCell>
        <mxCell id="VggR9B4aqKqfdDtKF7a5-15" style="edgeStyle=orthogonalEdgeStyle;rounded=0;orthogonalLoop=1;jettySize=auto;html=1;exitX=1;exitY=0.25;exitDx=0;exitDy=0;entryX=0;entryY=0.25;entryDx=0;entryDy=0;" edge="1" parent="1" source="VggR9B4aqKqfdDtKF7a5-2" target="VggR9B4aqKqfdDtKF7a5-3">
          <mxGeometry relative="1" as="geometry" />
        </mxCell>
        <mxCell id="VggR9B4aqKqfdDtKF7a5-2" value="AWS Lambda" style="rounded=0;whiteSpace=wrap;html=1;" vertex="1" parent="1">
          <mxGeometry x="410" y="240" width="120" height="60" as="geometry" />
        </mxCell>
        <mxCell id="VggR9B4aqKqfdDtKF7a5-16" style="edgeStyle=orthogonalEdgeStyle;rounded=0;orthogonalLoop=1;jettySize=auto;html=1;exitX=0;exitY=0.75;exitDx=0;exitDy=0;entryX=1;entryY=0.75;entryDx=0;entryDy=0;" edge="1" parent="1" source="VggR9B4aqKqfdDtKF7a5-3" target="VggR9B4aqKqfdDtKF7a5-2">
          <mxGeometry relative="1" as="geometry" />
        </mxCell>
        <mxCell id="VggR9B4aqKqfdDtKF7a5-3" value="AWS SageMaker" style="rounded=0;whiteSpace=wrap;html=1;" vertex="1" parent="1">
          <mxGeometry x="580" y="240" width="120" height="60" as="geometry" />
        </mxCell>
        <mxCell id="VggR9B4aqKqfdDtKF7a5-17" style="edgeStyle=orthogonalEdgeStyle;rounded=0;orthogonalLoop=1;jettySize=auto;html=1;exitX=0.25;exitY=1;exitDx=0;exitDy=0;entryX=0.25;entryY=0;entryDx=0;entryDy=0;" edge="1" parent="1" source="VggR9B4aqKqfdDtKF7a5-8" target="VggR9B4aqKqfdDtKF7a5-10">
          <mxGeometry relative="1" as="geometry" />
        </mxCell>
        <mxCell id="VggR9B4aqKqfdDtKF7a5-18" style="edgeStyle=orthogonalEdgeStyle;rounded=0;orthogonalLoop=1;jettySize=auto;html=1;exitX=0.75;exitY=0;exitDx=0;exitDy=0;entryX=0;entryY=1;entryDx=0;entryDy=-15;entryPerimeter=0;" edge="1" parent="1" source="VggR9B4aqKqfdDtKF7a5-8" target="VggR9B4aqKqfdDtKF7a5-1">
          <mxGeometry relative="1" as="geometry" />
        </mxCell>
        <mxCell id="VggR9B4aqKqfdDtKF7a5-8" value="API" style="rounded=0;whiteSpace=wrap;html=1;" vertex="1" parent="1">
          <mxGeometry x="170" y="240" width="120" height="60" as="geometry" />
        </mxCell>
        <mxCell id="VggR9B4aqKqfdDtKF7a5-12" style="edgeStyle=orthogonalEdgeStyle;rounded=0;orthogonalLoop=1;jettySize=auto;html=1;exitX=0.5;exitY=0;exitDx=0;exitDy=0;" edge="1" parent="1" source="VggR9B4aqKqfdDtKF7a5-10" target="VggR9B4aqKqfdDtKF7a5-8">
          <mxGeometry relative="1" as="geometry" />
        </mxCell>
        <mxCell id="VggR9B4aqKqfdDtKF7a5-10" value="App" style="rounded=0;whiteSpace=wrap;html=1;" vertex="1" parent="1">
          <mxGeometry x="170" y="450" width="120" height="60" as="geometry" />
        </mxCell>
      </root>
    </mxGraphModel>
  </diagram>
</mxfile>
